<svg width="24" height="24" viewBox="0 0 24 24" fill="none" xmlns="http://www.w3.org/2000/svg">
<path d="M19.4504 1.44282L2.96544 4.40736C1.60957 4.65122 0.5 5.98271 0.5 7.5865V17.6027C0.5 19.2463 1.60794 20.5485 2.96137 20.8054L19.4553 23.9398C21.4639 24.3211 23.1076 22.8278 23.1076 20.6875V4.84387C23.1084 2.47923 21.4623 1.0811 19.4504 1.44282Z" fill="#00E88F"/>
<path d="M15.3462 17.4247C14.3757 18.5261 13.0645 19.2601 11.4908 19.2601C7.92393 19.2601 5.32843 16.3753 5.32843 12.3629C5.32843 8.37662 7.92474 5.46574 11.4908 5.46574C12.8808 5.46574 14.0611 5.99004 14.9788 6.85574L15.0162 0H18.4254L18.388 18.9195H15.608L15.3462 17.4247ZM8.78963 12.3638C8.78963 14.6975 10.0219 16.2184 11.8842 16.2184C13.9034 16.2184 14.9788 14.6975 14.9788 12.3638C14.9788 10.03 13.9034 8.50831 11.8842 8.50831C10.0228 8.50831 8.78963 10.03 8.78963 12.3638Z" fill="black"/>
</svg>
